{"glyphs":{"0":{"ha":644,"x_min":33,"x_max":613,"o":"m 301 0 q 163 38 226 0 q 64 143 99 76 q 40 207 47 174 q 33 283 33 240 l 33 571 q 39 641 33 611 q 60 703 44 671 l 63 713 l 78 743 l 78 747 q 100 803 86 776 q 144 863 118 836 q 201 910 169 890 q 342 949 267 949 q 482 910 415 949 q 582 803 547 868 q 606 736 599 769 q 613 661 613 703 l 613 372 q 606 296 613 329 q 582 231 599 263 l 568 207 l 550 165 l 539 143 q 440 38 503 76 q 301 0 376 0 m 342 919 q 216 885 274 919 q 126 790 158 850 q 105 731 111 761 q 99 661 99 701 l 99 372 q 106 303 99 333 q 126 244 113 272 q 216 150 158 185 q 342 115 274 115 q 466 150 408 115 q 556 244 524 185 q 583 372 583 299 l 583 661 q 577 731 583 701 q 556 790 571 761 q 466 885 524 850 q 342 919 408 919 m 342 278 q 287 301 310 278 q 264 357 264 325 l 264 663 q 267 699 264 679 q 290 736 271 718 q 342 756 313 756 q 397 733 374 756 q 419 678 419 710 l 419 371 q 416 336 419 356 q 392 297 413 317 q 342 278 369 278 m 353 588 q 338 625 353 610 q 301 640 322 640 q 298 640 299 640 q 296 639 297 639 l 293 639 l 293 357 q 308 323 293 338 q 342 308 322 308 q 353 310 349 308 l 353 588 z "},"1":{"ha":442,"x_min":36,"x_max":401,"o":"m 72 936 l 72 947 l 401 947 l 401 86 l 394 86 l 357 0 l 142 0 l 142 639 l 36 639 l 36 854 l 72 936 m 101 754 l 207 754 l 207 115 l 371 115 l 371 918 l 101 918 l 101 754 z "},"2":{"ha":644,"x_min":35,"x_max":615,"o":"m 343 322 q 332 321 338 321 q 319 321 326 321 q 307 321 313 321 q 294 318 301 321 l 296 318 l 296 313 l 296 310 l 615 310 l 615 86 l 608 86 l 571 0 l 36 0 l 36 278 q 60 378 39 326 l 82 424 q 100 474 89 450 q 126 518 111 497 q 197 585 156 557 l 35 585 l 35 586 q 64 704 40 651 l 86 756 q 122 832 101 803 q 158 876 142 861 q 247 929 199 911 q 347 947 296 947 q 481 913 421 947 q 579 814 542 878 q 615 676 615 754 q 604 599 615 638 q 569 526 593 561 l 547 475 q 525 436 538 456 q 496 399 513 417 q 426 348 463 367 q 343 322 389 329 m 336 628 q 304 638 322 638 q 285 634 297 638 q 263 615 272 631 q 298 624 281 622 q 336 628 315 626 m 265 585 q 150 501 196 560 q 103 367 107 439 l 103 115 l 586 115 l 586 279 l 267 279 l 267 313 q 268 363 265 338 q 282 403 271 388 q 323 432 301 428 q 360 436 344 436 q 369 436 364 436 q 378 438 374 436 q 455 460 422 444 q 517 507 488 475 q 563 572 546 536 q 584 647 579 608 q 581 724 589 685 q 553 797 574 763 q 466 887 519 856 q 347 918 413 918 q 258 901 301 918 q 179 854 214 885 q 104 700 113 789 l 271 700 q 297 738 278 724 q 344 753 317 753 q 403 729 379 753 q 422 672 424 706 q 397 619 419 640 q 340 599 375 599 q 265 585 299 597 z "},"3":{"ha":644,"x_min":29,"x_max":611,"o":"m 611 676 q 567 532 611 597 l 560 515 q 611 358 611 440 q 599 276 611 314 q 585 247 592 261 q 569 219 579 233 l 546 167 q 479 74 522 114 q 383 15 436 33 q 299 0 338 0 q 199 20 247 0 q 113 76 150 40 l 113 75 l 111 78 q 29 269 38 149 l 67 353 q 65 363 65 356 l 65 364 l 138 364 l 138 535 l 161 586 l 29 586 l 29 588 q 56 688 36 643 q 58 694 56 692 l 63 706 l 63 704 l 81 747 q 122 830 96 793 q 183 893 149 867 q 256 934 217 919 q 339 949 296 949 q 425 935 388 949 q 532 866 485 914 q 599 758 579 818 q 611 676 611 721 m 532 532 q 578 635 568 579 q 569 749 588 692 q 512 847 551 806 q 415 907 472 888 q 339 919 378 919 q 250 903 292 919 q 176 857 208 886 q 124 788 144 828 q 99 701 103 749 l 264 701 q 293 740 272 725 q 339 756 314 756 q 394 732 371 756 q 410 647 429 694 q 382 612 401 625 q 339 599 363 599 l 204 599 l 204 436 l 314 436 q 358 432 333 436 q 399 410 382 428 q 415 339 422 379 q 396 306 408 319 q 367 286 383 292 q 339 281 356 281 q 292 295 313 281 q 264 333 272 310 l 99 333 q 169 186 104 249 q 247 134 203 153 q 339 115 290 115 q 415 129 375 115 q 512 188 472 147 q 569 286 551 228 q 578 400 588 344 q 532 503 568 456 l 522 518 l 532 532 m 331 629 q 299 640 315 640 q 269 629 285 640 l 331 629 z "},"4":{"ha":644,"x_min":32,"x_max":611,"o":"m 388 949 l 611 949 l 611 86 l 604 86 l 567 0 l 351 0 l 351 265 q 254 272 301 265 q 161 306 207 278 q 88 370 117 333 q 43 458 58 407 q 33 533 35 488 q 32 617 32 578 l 32 854 l 68 936 l 68 949 l 292 949 l 292 671 q 293 621 292 635 q 297 603 294 607 q 351 574 307 574 l 351 854 l 388 936 l 388 949 m 378 544 l 368 544 q 362 544 365 544 q 356 543 358 543 q 339 544 350 543 q 315 549 328 544 q 290 563 301 553 q 269 590 278 572 q 263 624 265 600 q 263 707 261 647 l 263 918 l 99 918 l 99 719 l 99 706 q 99 667 99 688 q 99 625 99 646 q 102 586 100 604 q 108 556 104 568 q 147 475 122 507 q 215 417 172 443 q 302 385 258 389 q 393 381 346 381 l 418 381 l 418 115 l 581 115 l 581 918 l 418 918 l 418 544 l 378 544 z "},"5":{"ha":644,"x_min":38,"x_max":618,"o":"m 74 947 l 618 947 l 618 726 l 611 726 l 574 640 l 299 640 l 299 629 l 303 629 q 454 606 397 629 q 579 497 536 569 q 617 358 617 431 q 604 279 617 319 q 568 203 592 239 l 565 196 l 554 171 l 556 172 l 547 156 q 514 99 535 125 q 420 26 474 51 q 308 0 367 0 q 209 19 258 0 q 122 74 160 39 q 65 158 88 106 q 38 269 43 210 l 60 319 l 38 319 l 38 854 l 74 936 l 74 947 m 269 600 l 269 756 l 589 756 l 589 918 l 104 918 l 104 435 l 338 435 q 387 422 365 435 q 419 388 408 410 q 406 307 438 344 q 347 279 382 279 q 301 294 321 279 q 272 333 281 310 l 107 333 q 181 182 115 239 q 258 133 214 150 q 349 115 301 115 q 450 138 403 115 q 533 204 497 161 q 588 340 582 264 q 553 482 593 417 q 506 540 532 518 q 443 579 481 563 q 380 597 413 593 q 303 600 347 600 l 269 600 z "},"6":{"ha":644,"x_min":32,"x_max":614,"o":"m 529 129 q 432 35 493 69 q 301 0 371 0 q 147 49 217 0 l 146 49 q 82 113 108 76 q 44 193 56 149 q 33 256 35 225 q 33 318 32 286 l 33 517 q 36 613 33 567 q 58 701 39 660 l 81 751 q 157 875 99 821 q 339 949 235 949 q 439 928 389 949 q 528 872 489 908 q 586 785 564 836 q 614 672 608 733 l 614 671 l 608 671 l 569 586 l 490 586 q 561 514 528 561 q 613 358 613 443 q 574 217 613 283 l 564 201 l 547 164 l 547 165 l 544 158 q 538 146 542 151 q 532 135 535 140 q 529 129 529 132 m 176 854 q 131 799 147 826 q 108 740 115 771 q 100 676 101 710 q 99 606 99 643 l 99 406 q 99 347 99 375 q 110 289 100 318 q 200 160 131 210 q 342 115 264 115 q 462 146 408 115 q 547 233 515 176 q 583 366 585 294 q 539 497 581 438 q 486 552 514 532 q 427 583 458 572 q 361 596 396 593 q 288 599 326 599 l 263 599 l 263 638 q 266 696 260 665 q 304 743 272 726 q 340 754 319 754 q 386 740 365 754 q 414 701 407 725 l 581 701 q 507 851 574 789 q 428 901 472 883 q 339 918 385 918 q 176 854 249 918 m 293 628 q 311 628 303 628 q 329 626 319 628 q 300 639 314 639 q 298 638 299 639 q 294 638 297 638 q 293 636 294 636 l 293 628 m 279 308 q 263 354 264 326 q 263 400 263 382 l 263 435 l 297 435 q 306 436 301 436 q 315 436 311 436 q 389 418 364 436 q 418 360 415 397 q 396 301 421 326 q 340 279 374 279 q 279 308 304 279 m 317 315 q 329 310 321 313 q 324 313 326 311 q 317 315 321 314 z "},"7":{"ha":644,"x_min":29,"x_max":610,"o":"m 67 935 l 67 947 l 610 947 l 610 729 l 440 86 l 435 86 l 397 0 l 175 0 l 343 639 l 29 639 l 31 854 l 67 935 m 579 918 l 96 918 l 96 754 l 415 754 l 249 115 l 418 115 l 579 732 l 579 918 z "},"8":{"ha":644,"x_min":31,"x_max":611,"o":"m 568 531 l 560 513 q 611 360 611 438 q 582 236 611 294 q 573 219 578 228 q 563 203 568 211 l 549 171 l 550 172 l 542 156 l 539 149 q 440 39 503 78 q 299 0 376 0 q 160 40 225 0 q 60 149 96 81 q 31 269 31 208 q 54 376 31 322 l 76 428 q 79 436 76 431 q 31 586 31 501 q 57 697 31 643 l 60 706 l 76 742 q 85 770 81 757 q 97 796 90 783 q 197 906 133 865 q 266 937 229 926 q 339 947 303 947 q 482 907 417 947 q 582 796 546 869 q 611 675 611 738 q 601 601 611 638 q 568 532 590 564 l 568 531 m 533 532 q 581 654 575 588 q 556 785 588 721 q 467 883 524 847 q 339 918 410 918 q 212 883 268 918 q 124 785 156 847 q 97 656 92 722 q 146 532 103 589 l 157 517 l 146 503 q 98 379 104 446 q 124 250 92 313 q 212 151 156 186 q 339 115 268 115 q 467 151 410 115 q 556 250 524 186 q 581 379 588 313 q 533 503 575 446 l 521 517 l 533 532 m 339 754 q 394 731 371 754 q 417 676 417 708 q 394 622 417 644 q 339 599 371 599 q 284 622 307 599 q 261 676 261 644 q 284 731 261 708 q 339 754 307 754 m 329 631 q 310 639 321 636 q 329 631 318 633 m 339 435 q 394 413 371 435 q 417 357 417 390 q 394 302 417 325 q 339 279 371 279 q 284 302 307 279 q 261 357 261 325 q 284 412 261 389 q 339 435 307 435 m 329 311 q 310 319 321 317 q 329 311 318 314 z "},"9":{"ha":644,"x_min":31,"x_max":611,"o":"m 600 754 q 610 697 608 725 q 611 640 611 669 l 611 429 q 604 313 611 369 q 561 204 597 257 l 540 154 q 481 72 522 111 q 397 19 443 38 q 301 0 350 0 q 201 19 250 0 q 114 75 153 39 q 31 269 43 143 l 32 269 l 69 353 q 68 363 68 356 l 68 364 l 150 364 q 81 435 107 394 q 44 508 57 468 q 32 589 32 547 q 56 699 32 644 q 58 706 56 703 l 58 704 l 78 749 q 107 818 88 788 q 205 915 144 881 q 339 949 265 949 q 423 935 381 949 q 499 899 465 922 q 560 836 533 874 q 600 754 586 799 m 351 321 q 332 321 340 321 q 313 322 324 321 q 340 311 324 311 q 350 313 346 311 l 351 313 l 351 321 m 100 333 q 172 183 108 244 q 252 133 208 151 q 342 115 296 115 q 503 181 435 115 q 549 235 532 207 q 572 294 565 264 q 581 358 579 325 q 582 429 582 392 l 582 629 l 582 640 q 581 694 582 668 q 572 746 579 719 q 481 875 547 828 q 415 908 451 896 q 339 919 379 919 q 220 889 274 919 q 132 801 167 858 q 99 668 96 739 q 143 539 101 597 q 195 483 168 503 q 253 452 222 463 q 319 439 285 442 q 393 436 354 436 l 418 436 l 418 396 q 415 340 419 372 q 378 290 410 308 q 340 281 358 281 q 294 295 315 281 q 265 333 274 310 l 100 333 m 340 756 q 400 726 378 756 q 417 683 415 710 q 418 635 419 657 l 418 600 l 365 600 q 325 603 344 600 q 292 617 306 606 q 263 674 265 638 q 285 733 260 708 q 340 756 310 756 m 325 633 q 311 640 318 638 q 325 633 315 636 z "},"\u0000":{"ha":0,"x_min":0,"x_max":0,"o":""},"\r":{"ha":429,"x_min":0,"x_max":0,"o":""}," ":{"ha":429,"x_min":0,"x_max":0,"o":""},"G":{"ha":644,"x_min":33,"x_max":614,"o":"m 607 672 l 588 629 l 613 629 l 613 357 q 565 204 613 274 l 544 158 q 447 43 513 86 q 303 0 382 0 q 222 13 260 0 q 115 76 161 32 q 49 181 69 121 q 35 240 38 211 q 33 303 33 269 l 33 551 q 35 615 33 586 q 49 675 38 644 q 53 687 51 682 q 57 699 54 692 l 79 747 l 85 767 q 152 872 106 826 q 261 936 199 917 q 302 945 282 943 q 343 947 322 947 q 442 926 394 947 q 525 867 489 904 q 585 781 561 831 q 614 672 608 731 l 607 672 m 343 918 q 269 908 307 918 q 174 850 215 890 q 114 757 133 810 q 102 701 104 729 q 100 642 100 674 l 100 392 q 102 333 100 361 q 114 278 104 306 q 174 184 133 224 q 269 126 215 144 q 306 118 289 121 q 343 115 324 115 q 437 134 393 115 q 513 186 481 153 q 565 263 546 219 q 583 357 583 307 l 583 599 l 292 599 l 292 435 l 419 435 l 419 357 q 398 303 419 325 q 344 279 376 281 l 342 279 q 288 300 310 279 q 264 351 267 321 q 262 395 261 374 q 263 436 263 417 l 263 464 q 264 491 264 478 q 264 517 264 504 q 264 544 264 531 q 263 569 264 557 l 263 597 q 262 639 263 618 q 264 683 261 660 q 289 733 267 713 q 342 754 311 754 l 344 754 q 415 701 397 751 l 582 701 q 557 787 578 747 q 503 856 536 826 q 430 901 471 885 q 343 918 389 918 m 353 319 l 311 319 q 343 310 325 310 q 353 311 350 310 l 353 319 z "},"F":{"ha":644,"x_min":32,"x_max":611,"o":"m 285 86 l 247 0 l 32 0 l 32 854 l 68 935 l 68 947 l 611 947 l 611 724 l 604 724 l 567 639 l 292 639 l 292 628 l 611 628 l 611 404 l 604 404 l 567 319 l 292 319 l 292 86 l 285 86 m 99 918 l 99 115 l 263 115 l 263 435 l 582 435 l 582 599 l 263 599 l 263 754 l 582 754 l 582 918 l 99 918 z "},"O":{"ha":644,"x_min":33,"x_max":613,"o":"m 301 0 q 163 38 226 0 q 64 143 99 76 q 40 207 47 174 q 33 283 33 240 l 33 571 q 39 641 33 611 q 60 703 44 671 l 63 713 l 78 743 l 78 747 q 100 803 86 776 q 144 863 118 836 q 201 910 169 890 q 342 949 267 949 q 482 910 415 949 q 582 803 547 868 q 606 736 599 769 q 613 661 613 703 l 613 372 q 606 296 613 329 q 582 231 599 263 l 568 207 l 550 165 l 539 143 q 440 38 503 76 q 301 0 376 0 m 342 919 q 216 885 274 919 q 126 790 158 850 q 105 731 111 761 q 99 661 99 701 l 99 372 q 106 303 99 333 q 126 244 113 272 q 216 150 158 185 q 342 115 274 115 q 466 150 408 115 q 556 244 524 185 q 583 372 583 299 l 583 661 q 577 731 583 701 q 556 790 571 761 q 466 885 524 850 q 342 919 408 919 m 342 278 q 287 301 310 278 q 264 357 264 325 l 264 663 q 267 699 264 679 q 290 736 271 718 q 342 756 313 756 q 397 733 374 756 q 419 678 419 710 l 419 371 q 416 336 419 356 q 392 297 413 317 q 342 278 369 278 m 353 588 q 338 625 353 610 q 301 640 322 640 q 298 640 299 640 q 296 639 297 639 l 293 639 l 293 357 q 308 323 293 338 q 342 308 322 308 q 353 310 349 308 l 353 588 z "},"E":{"ha":644,"x_min":35,"x_max":614,"o":"m 607 86 l 569 0 l 35 0 l 35 856 l 71 935 l 71 949 l 614 949 l 614 725 l 607 725 l 569 639 l 294 639 l 294 629 l 614 629 l 614 406 l 607 406 l 569 319 l 294 319 l 294 310 l 614 310 l 614 86 l 607 86 m 100 919 l 100 115 l 585 115 l 585 279 l 264 279 l 264 435 l 585 435 l 585 599 l 264 599 l 264 756 l 585 756 l 585 919 l 100 919 z "},"I":{"ha":347,"x_min":46,"x_max":306,"o":"m 300 85 l 261 0 l 46 0 l 46 854 l 82 933 l 82 947 l 306 947 l 306 85 l 300 85 m 276 918 l 113 918 l 113 115 l 276 115 l 276 918 z "},"H":{"ha":644,"x_min":36,"x_max":615,"o":"m 289 86 l 251 0 l 36 0 l 36 854 l 72 935 l 72 949 l 296 949 l 296 629 l 356 629 l 356 854 l 356 854 l 392 935 l 392 949 l 615 949 l 615 86 l 608 86 l 571 0 l 356 0 l 356 319 l 296 319 l 296 86 l 289 86 m 267 435 l 422 435 l 422 115 l 585 115 l 585 918 l 422 918 l 422 599 l 267 599 l 267 918 l 103 918 l 103 115 l 267 115 l 267 435 z "},"J":{"ha":644,"x_min":28,"x_max":607,"o":"m 65 363 l 285 363 l 285 361 q 306 324 292 338 q 338 310 321 311 q 344 310 340 310 q 350 311 347 311 l 350 318 l 350 346 q 349 360 349 353 q 349 374 349 367 l 349 854 l 385 936 l 385 949 l 607 949 l 607 393 q 606 328 607 357 q 593 268 604 299 q 561 204 582 233 l 546 171 q 540 160 542 165 q 473 68 517 107 q 376 13 429 29 q 296 0 340 0 q 115 78 193 0 q 56 165 78 115 q 28 268 33 214 l 65 353 l 65 361 l 65 363 m 414 351 q 389 300 411 321 q 338 279 367 279 l 333 279 q 290 294 310 281 q 263 332 271 308 l 97 332 q 122 247 101 286 q 175 178 143 207 q 248 132 207 149 q 336 115 289 115 q 408 126 375 115 q 505 183 464 143 q 565 278 546 224 q 576 333 575 306 q 578 393 578 360 l 578 918 l 415 918 l 415 463 q 417 407 417 435 q 414 351 417 379 z "},"K":{"ha":644,"x_min":40,"x_max":625,"o":"m 301 801 l 374 947 l 625 947 l 624 946 l 410 517 l 624 85 l 614 85 l 576 0 l 336 0 l 296 85 l 294 85 l 257 0 l 40 0 l 42 854 l 78 935 l 78 947 l 301 947 l 301 801 m 392 918 l 271 672 l 271 918 l 107 918 l 107 115 l 271 115 l 271 254 l 272 368 l 392 115 l 576 115 l 376 517 l 376 517 l 576 918 l 392 918 z "},"U":{"ha":644,"x_min":36,"x_max":617,"o":"m 304 0 q 166 38 229 0 q 67 143 103 76 q 44 207 51 174 q 36 282 36 240 l 36 854 l 72 935 l 72 949 l 297 949 l 297 374 q 302 340 297 353 q 314 319 307 326 q 329 309 321 311 q 344 307 338 307 q 356 308 351 307 l 356 854 l 393 935 l 393 949 l 617 949 l 617 372 q 585 229 617 285 l 571 208 l 553 167 l 550 161 l 550 160 l 540 143 q 436 40 501 79 q 304 0 371 0 m 422 374 q 413 322 422 342 q 392 293 404 303 q 366 281 379 283 q 344 278 353 278 q 320 281 333 278 q 295 294 307 285 q 275 323 283 304 q 267 374 267 342 l 267 918 l 103 918 l 103 372 q 131 244 103 296 q 219 149 163 183 q 344 115 276 115 q 469 149 413 115 q 558 244 526 183 q 586 372 586 296 l 586 918 l 422 918 l 422 374 z "},"T":{"ha":604,"x_min":43,"x_max":569,"o":"m 79 938 l 79 949 l 569 949 l 569 725 l 563 725 l 525 640 l 436 640 l 436 86 l 431 86 l 392 0 l 176 0 l 176 640 l 43 640 l 43 856 l 79 938 m 108 756 l 243 756 l 243 115 l 407 115 l 407 756 l 539 756 l 539 919 l 108 919 l 108 756 z "},"Y":{"ha":644,"x_min":35,"x_max":614,"o":"m 194 289 q 77 390 119 324 q 35 539 35 457 l 35 854 l 71 936 l 71 949 l 294 949 l 294 642 q 299 608 294 621 q 312 587 304 594 q 328 577 319 579 q 343 575 336 575 q 354 576 350 575 l 354 854 l 390 936 l 390 949 l 614 949 l 614 629 q 565 471 614 544 l 560 456 l 550 433 l 550 435 l 546 426 q 454 315 514 358 l 454 86 l 449 86 l 410 0 l 194 0 l 194 289 m 421 642 q 413 591 421 610 q 392 563 404 572 q 367 549 381 553 q 343 546 354 546 q 319 549 332 546 q 294 563 306 553 q 274 591 282 572 q 265 642 265 610 l 265 918 l 101 918 l 101 629 q 140 492 101 553 q 246 401 179 431 l 261 396 l 261 117 l 425 117 l 425 396 l 439 401 q 546 492 507 431 q 585 629 585 553 l 585 918 l 421 918 l 421 642 z "},"Z":{"ha":679,"x_min":35,"x_max":639,"o":"m 71 293 l 71 294 l 303 626 l 35 626 l 35 842 l 71 924 l 71 936 l 639 936 l 639 714 l 626 696 l 594 626 l 364 297 l 639 297 l 639 74 l 632 74 l 594 -12 l 35 -12 l 35 203 l 71 285 l 71 293 m 101 742 l 421 742 l 419 740 l 101 283 l 101 103 l 610 103 l 610 267 l 289 267 l 610 725 l 610 906 l 101 906 l 101 742 z "},"R":{"ha":644,"x_min":36,"x_max":615,"o":"m 356 0 l 356 214 q 354 265 356 240 q 344 300 353 289 q 322 315 335 311 q 297 321 308 319 l 297 85 l 290 85 l 253 0 l 36 0 l 36 854 l 72 933 l 72 947 l 300 947 q 368 944 335 947 q 434 931 401 942 q 497 900 467 921 q 557 844 528 879 q 600 765 585 808 q 615 676 615 721 q 569 525 615 589 l 564 514 q 608 417 600 465 q 615 308 615 368 l 615 85 l 608 85 l 571 0 l 356 0 m 101 115 l 267 115 l 267 435 l 290 435 q 303 436 299 435 l 324 436 q 404 406 379 436 q 420 361 418 389 q 422 303 422 333 l 422 115 l 585 115 l 585 308 q 578 412 585 367 q 538 501 571 457 l 526 517 l 538 531 q 585 678 586 597 q 533 825 585 760 q 482 876 508 857 q 427 903 456 894 q 367 915 399 913 q 300 918 335 918 l 101 918 l 101 115 m 331 597 q 319 597 325 597 q 310 599 314 597 l 267 599 l 267 754 l 290 754 q 299 754 296 754 q 310 756 303 754 l 331 756 q 365 751 350 756 q 406 722 390 743 q 422 676 422 701 q 406 629 422 650 q 365 601 390 608 q 331 597 350 597 m 335 626 q 317 638 324 635 q 297 640 306 640 l 297 628 l 315 628 q 331 626 322 626 l 335 626 z "},"S":{"ha":644,"x_min":31,"x_max":614,"o":"m 489 79 q 390 15 440 31 q 301 0 339 0 q 201 19 250 0 q 115 74 151 39 q 59 156 81 107 q 31 269 38 206 l 68 353 q 67 363 67 356 l 153 363 q 53 485 85 408 q 32 589 32 535 q 56 697 32 642 q 58 704 58 703 q 60 707 60 706 l 61 710 l 78 746 q 147 868 93 811 q 250 933 199 918 q 339 949 301 949 q 440 929 390 949 q 528 874 489 910 q 583 790 561 842 q 614 672 606 739 l 607 672 l 569 586 l 486 586 q 547 533 519 564 q 592 461 574 501 q 613 357 613 407 q 565 208 613 272 l 544 160 q 519 117 533 136 q 489 79 506 97 m 318 317 q 323 314 321 315 q 328 311 325 313 q 318 317 324 314 m 100 333 q 174 182 108 243 q 251 133 207 150 q 342 115 294 115 q 422 129 376 115 q 511 188 467 143 q 578 310 564 240 q 564 450 592 381 q 475 559 535 519 q 340 599 415 599 q 268 647 290 599 q 265 692 260 669 q 285 732 269 715 q 340 754 310 754 q 386 740 365 754 q 415 701 407 725 l 581 701 q 507 851 572 793 q 428 901 472 883 q 339 919 383 919 q 260 906 306 919 q 169 849 214 893 q 103 724 117 794 q 117 583 89 654 q 206 474 146 514 q 340 435 265 435 q 383 422 364 435 q 413 386 403 410 q 416 342 421 364 q 396 303 411 319 q 342 279 372 279 q 294 294 315 279 q 267 333 274 310 l 100 333 m 313 638 q 318 633 315 635 q 325 631 321 632 q 313 638 317 636 z "},"Q":{"ha":644,"x_min":35,"x_max":621,"o":"m 303 0 q 183 28 240 0 q 88 108 126 57 q 57 162 68 135 q 41 216 46 189 q 35 271 36 243 q 35 328 35 299 l 35 347 q 36 354 35 353 l 36 361 q 35 374 36 367 q 35 488 35 442 q 35 562 35 533 q 37 604 36 590 q 38 624 38 618 q 58 694 43 658 l 58 697 l 60 699 l 60 700 l 61 701 l 81 744 q 134 851 96 803 q 225 922 172 899 q 343 950 285 950 q 445 930 397 950 q 530 876 493 910 q 590 795 567 842 q 615 694 613 749 q 617 648 617 671 q 617 604 617 625 l 617 575 l 617 569 q 616 566 617 567 q 615 564 615 565 l 615 417 q 611 306 617 356 q 572 207 606 257 l 557 176 l 621 32 l 611 32 l 572 -54 l 336 -54 l 317 0 l 303 0 m 101 418 q 102 364 101 390 q 107 312 103 338 q 121 262 111 286 q 149 214 131 238 q 234 141 183 167 q 343 115 285 115 l 356 115 l 372 117 l 394 61 l 574 61 l 519 189 l 529 201 q 562 251 550 226 q 579 303 574 276 q 585 358 585 329 q 586 418 586 386 l 586 564 l 586 585 q 588 604 588 592 q 588 648 588 626 q 586 693 588 669 q 563 782 583 740 q 510 855 543 824 q 435 903 478 886 q 343 921 392 921 q 238 896 292 921 q 148 819 183 868 q 104 710 113 771 q 102 640 103 700 q 101 468 101 581 q 103 458 103 461 q 103 451 103 454 q 101 438 103 442 l 101 424 l 101 418 m 344 279 q 289 303 313 279 q 265 358 265 326 l 265 663 q 269 699 265 681 q 293 738 272 718 q 343 756 315 756 q 399 733 375 756 q 422 678 422 710 l 422 372 q 419 336 422 356 q 396 299 415 317 q 344 279 372 279 m 356 589 q 340 625 356 610 q 303 640 325 640 l 300 640 q 296 640 296 640 l 296 358 q 310 324 296 339 q 344 310 325 310 q 356 313 347 310 l 356 589 z "},"V":{"ha":629,"x_min":25,"x_max":604,"o":"m 604 947 l 603 947 l 469 86 l 464 86 l 426 0 l 160 0 l 160 1 l 25 854 l 25 854 l 63 938 l 61 947 l 288 947 l 288 947 l 321 728 l 342 854 l 342 854 l 375 929 l 378 947 l 604 947 m 261 918 l 96 918 l 222 115 l 443 115 l 569 918 l 404 918 l 332 447 l 308 617 l 261 918 z "},"W":{"ha":974,"x_min":36,"x_max":936,"o":"m 713 947 l 936 947 l 936 356 q 924 275 935 314 q 889 204 913 236 l 889 203 l 885 194 l 876 175 l 876 174 l 872 161 l 872 167 l 872 165 l 868 156 q 844 112 858 132 q 810 72 829 92 q 723 19 771 38 q 624 0 675 0 q 540 13 579 0 q 468 50 500 25 l 465 53 q 391 13 432 26 q 307 0 350 0 q 208 18 257 0 q 119 72 160 36 q 62 159 83 107 q 38 265 40 211 q 36 364 36 310 q 36 463 36 418 q 36 560 36 511 q 38 657 36 608 l 38 853 l 38 854 l 75 935 l 75 947 l 297 947 l 297 374 q 313 321 297 333 q 346 308 329 308 q 357 310 353 308 l 357 853 l 357 854 l 393 935 l 393 947 l 617 947 l 617 374 q 622 340 617 353 q 634 319 626 326 q 650 310 642 313 q 665 308 658 308 q 676 310 672 308 l 676 853 l 676 854 l 713 935 l 713 947 m 743 374 q 734 323 743 342 q 713 294 725 304 q 687 282 700 285 q 665 279 674 279 q 641 283 654 279 q 616 296 628 286 q 596 324 604 306 q 588 374 588 343 l 588 918 l 424 918 l 424 374 q 415 324 424 343 q 395 296 407 306 q 370 283 383 286 q 346 279 357 279 q 322 283 335 279 q 297 296 308 286 q 276 324 285 306 q 268 374 268 343 l 268 918 l 104 918 l 104 746 q 104 356 101 553 q 124 261 104 306 q 176 185 143 217 q 253 134 210 153 q 347 115 297 115 q 490 164 426 115 l 506 175 l 519 164 q 664 115 583 115 q 753 132 710 115 q 832 181 797 149 q 907 356 904 251 l 907 618 l 907 746 l 907 918 l 743 918 l 743 374 z "},"L":{"ha":596,"x_min":44,"x_max":558,"o":"m 551 86 l 514 0 l 44 0 l 44 854 l 81 936 l 81 947 l 304 947 l 304 310 l 558 310 l 558 86 l 551 86 m 110 918 l 110 115 l 528 115 l 528 279 l 274 279 l 274 918 l 110 918 z "},"P":{"ha":644,"x_min":39,"x_max":618,"o":"m 254 0 l 39 0 l 39 854 l 76 935 l 76 949 l 347 949 q 539 868 456 949 q 598 778 578 828 q 618 676 618 729 q 569 519 618 592 l 556 490 q 553 482 556 488 q 551 480 551 481 q 550 478 551 479 q 452 363 518 406 q 307 319 386 319 l 299 319 l 299 86 l 293 86 l 254 0 m 106 115 l 269 115 l 269 435 l 347 435 q 441 453 397 435 q 518 506 485 472 q 570 583 551 539 q 589 676 589 626 q 518 849 589 775 q 440 900 483 882 q 347 918 396 918 l 106 918 l 106 115 m 425 676 q 402 622 425 644 q 347 599 379 599 l 269 599 l 269 754 l 347 754 q 402 732 379 754 q 425 676 425 710 m 338 629 q 307 639 322 639 l 299 639 l 299 629 l 338 629 z "},"X":{"ha":644,"x_min":13,"x_max":632,"o":"m 632 946 l 460 517 l 494 429 q 513 383 504 406 q 533 335 522 360 q 585 206 560 269 q 632 88 611 142 l 632 86 l 622 86 l 585 0 l 354 0 l 303 126 l 288 86 l 282 86 l 244 0 l 13 0 l 63 129 l 182 428 q 165 470 174 449 q 147 515 157 492 q 78 686 114 599 q 13 853 43 774 l 13 854 l 50 938 l 46 947 l 288 947 l 338 819 q 345 838 342 829 q 354 854 349 847 l 357 863 l 392 947 l 632 947 l 632 946 m 90 115 l 267 115 l 339 296 l 411 115 l 588 115 l 428 517 l 588 918 l 411 918 l 339 738 l 267 918 l 90 918 l 251 517 l 90 115 z "},"N":{"ha":644,"x_min":35,"x_max":614,"o":"m 342 949 q 467 919 408 949 q 561 836 525 889 q 608 724 601 778 q 613 613 614 669 l 613 86 l 607 86 l 569 0 l 354 0 l 354 569 q 349 606 354 592 q 335 627 343 619 q 317 637 326 635 q 301 639 308 639 l 299 639 q 294 639 294 643 l 294 86 l 288 86 l 250 0 l 35 0 l 35 524 q 38 614 35 572 q 60 699 40 656 q 63 707 60 701 q 63 709 63 708 q 64 711 64 710 l 82 753 q 124 836 92 794 q 220 919 163 889 q 342 949 278 949 m 342 754 q 367 751 353 754 q 392 738 381 747 q 413 709 404 728 q 421 660 421 690 l 421 115 l 583 115 l 583 613 q 579 717 585 667 q 539 818 574 768 q 452 892 504 865 q 342 918 400 918 q 233 892 283 918 q 147 818 182 865 q 119 770 129 794 q 106 720 110 746 q 101 668 101 694 q 100 613 100 642 l 100 115 l 264 115 l 264 660 q 273 710 264 692 q 294 739 282 729 q 320 751 307 749 q 342 754 333 754 z "},"M":{"ha":982,"x_min":42,"x_max":942,"o":"m 681 0 l 681 571 q 664 627 681 614 q 629 640 647 640 l 626 640 q 621 640 622 642 l 621 86 l 614 86 l 576 0 l 361 0 l 361 571 q 344 627 361 614 q 310 640 328 640 l 307 640 q 301 640 303 642 l 301 86 l 294 86 l 257 0 l 42 0 l 42 590 q 64 696 42 644 l 65 700 q 67 703 65 703 l 69 707 l 72 715 l 88 750 q 163 874 104 817 q 250 930 201 910 q 351 950 299 950 q 510 896 436 950 q 668 950 582 950 q 768 931 719 950 q 856 875 817 911 q 940 679 938 793 l 940 582 l 940 532 q 942 508 942 521 q 942 483 942 496 q 942 458 942 471 q 940 433 942 446 l 940 383 l 940 86 l 933 86 l 896 0 l 681 0 m 350 756 q 374 752 361 756 q 399 739 388 749 q 419 710 411 729 q 428 661 428 692 l 428 117 l 592 117 l 592 661 q 600 710 592 692 q 620 739 608 729 q 645 752 632 749 q 669 756 658 756 q 694 752 681 756 q 719 739 707 749 q 739 710 731 729 q 747 661 747 692 l 747 117 l 911 117 l 911 288 l 911 679 q 890 774 910 729 q 836 853 871 818 q 756 902 800 885 q 668 919 713 919 q 524 871 589 919 l 510 860 l 494 871 q 351 919 429 919 q 258 900 303 919 q 181 848 214 881 q 128 772 147 815 q 108 679 108 728 q 108 415 106 547 l 108 286 l 108 117 l 272 117 l 272 661 q 281 710 272 692 q 301 739 289 729 q 326 752 313 749 q 350 756 339 756 z "},"!":{"ha":346,"x_min":38,"x_max":299,"o":"m 74 947 l 299 947 l 299 351 l 292 351 l 260 282 q 289 244 279 267 q 299 197 299 221 q 274 126 299 157 l 271 119 l 247 68 l 246 64 q 206 17 233 35 q 147 0 179 0 q 69 31 103 0 q 38 108 38 63 q 47 151 38 131 l 50 157 l 75 214 q 97 267 79 242 l 38 267 l 38 854 l 74 935 l 74 947 m 104 918 l 104 382 l 269 382 l 269 918 l 104 918 m 188 279 q 128 255 153 279 q 104 197 104 231 q 128 139 104 163 q 188 115 151 115 q 245 139 221 115 q 269 197 269 163 q 245 255 269 231 q 188 279 221 279 z "},"?":{"ha":644,"x_min":31,"x_max":617,"o":"m 488 903 q 583 794 550 861 q 610 654 617 726 q 563 528 601 585 l 543 481 q 451 368 510 411 l 451 353 l 444 353 l 413 282 q 441 244 431 267 q 451 197 451 221 q 424 125 451 157 l 401 76 l 399 67 q 358 18 385 36 q 299 0 331 0 q 223 32 254 0 q 192 108 192 64 q 200 150 192 131 q 203 157 200 154 l 203 158 l 204 160 l 206 167 l 206 165 l 229 214 q 251 267 231 242 l 192 267 l 192 413 q 194 448 192 432 q 203 476 196 464 l 206 483 l 232 542 q 300 622 244 601 q 325 626 313 626 q 333 628 331 626 q 300 639 318 639 q 254 610 272 639 l 244 586 l 31 586 l 31 588 q 58 700 38 657 l 58 703 l 60 704 l 60 706 l 60 707 l 64 717 l 64 715 l 82 756 q 151 872 101 824 q 238 928 189 908 q 340 949 288 949 q 415 937 378 949 q 488 903 453 925 m 339 279 q 281 255 306 279 q 257 197 257 231 q 281 140 257 164 q 339 115 306 115 q 397 140 372 115 q 421 197 421 164 q 397 255 421 231 q 339 279 372 279 m 436 456 q 536 536 499 483 q 579 657 574 589 q 558 783 586 724 q 472 878 531 842 q 340 918 411 918 q 249 900 293 918 q 171 850 204 882 q 122 781 140 819 q 99 701 103 743 l 265 701 q 294 740 272 725 q 340 754 315 754 q 411 708 389 754 q 415 657 422 683 q 386 614 408 631 q 361 601 374 604 q 338 597 349 599 q 332 596 333 597 q 321 596 326 596 q 311 594 315 596 q 257 501 257 575 l 257 382 l 421 382 l 421 449 l 436 456 z "},".":{"ha":324,"x_min":32,"x_max":293,"o":"m 179 308 q 260 276 228 308 q 293 197 293 244 q 267 126 293 160 l 242 72 q 240 69 242 71 l 239 64 l 236 56 l 236 60 q 196 16 221 32 q 139 0 171 0 q 63 31 94 0 q 32 107 32 63 q 40 151 32 135 q 43 158 40 156 l 44 160 l 43 160 l 44 163 l 46 168 l 46 167 l 69 217 q 108 283 76 257 q 179 308 139 308 m 179 279 q 122 255 146 279 q 97 197 97 231 q 122 140 97 164 q 179 115 146 115 q 238 139 214 115 q 263 197 263 163 q 239 256 263 232 q 179 279 215 279 z "},",":{"ha":324,"x_min":25,"x_max":289,"o":"m 288 204 l 289 200 l 289 196 q 243 43 289 115 l 226 1 l 221 -10 q 119 -135 192 -78 l 117 -137 l 117 -136 q 101 -142 113 -142 q 88 -137 93 -142 q 75 -110 75 -131 q 74 -103 74 -108 q 72 -81 72 -92 q 68 -58 71 -69 q 63 -46 68 -57 q 54 -28 60 -42 l 47 -6 q 29 108 25 49 q 38 151 29 135 q 40 157 38 154 l 40 160 l 40 161 l 67 219 q 106 284 75 260 q 178 308 136 308 q 219 300 201 307 q 256 274 236 293 q 269 258 263 267 q 279 243 276 250 l 288 214 l 288 204 m 260 200 q 258 203 258 201 l 258 211 l 253 228 q 246 241 250 235 q 236 254 242 247 q 209 272 221 267 q 178 279 197 278 q 119 255 143 279 q 96 196 96 231 l 96 193 q 99 141 93 165 q 111 93 104 117 l 119 72 q 126 56 122 64 q 133 38 131 47 q 138 8 136 22 q 140 -19 139 -7 l 140 -24 l 140 -26 l 142 -26 q 144 -25 143 -26 q 260 196 260 71 l 260 200 z "},";":{"ha":324,"x_min":25,"x_max":293,"o":"m 288 204 l 289 200 l 289 196 q 243 43 289 115 l 226 1 l 221 -10 q 119 -135 192 -78 l 117 -137 l 117 -136 q 101 -142 113 -142 q 88 -137 93 -142 q 75 -110 75 -131 q 74 -103 74 -108 q 72 -81 72 -92 q 68 -58 71 -69 q 63 -46 68 -57 q 54 -28 60 -42 l 47 -6 q 29 108 25 49 q 38 151 29 135 q 40 157 38 154 l 40 160 l 40 161 l 67 219 q 106 284 75 260 q 178 308 136 308 q 219 300 201 307 q 256 274 236 293 q 269 258 263 267 q 279 243 276 250 l 288 214 l 288 204 m 260 200 q 258 203 258 201 l 258 211 l 253 228 q 246 241 250 235 q 236 254 242 247 q 209 272 221 267 q 178 279 197 278 q 119 255 143 279 q 96 196 96 231 l 96 193 q 99 141 93 165 q 111 93 104 117 l 119 72 q 126 56 122 64 q 133 38 131 47 q 138 8 136 22 q 140 -19 139 -7 l 140 -24 l 140 -26 l 142 -26 q 144 -25 143 -26 q 260 196 260 71 l 260 200 m 179 938 q 260 906 228 938 q 293 826 293 874 q 267 756 293 789 l 242 701 q 240 699 242 700 l 239 693 l 236 685 l 236 689 q 196 645 221 661 q 139 629 171 629 q 63 660 94 629 q 32 736 32 692 q 40 781 32 764 q 43 788 40 785 l 44 789 l 43 789 l 44 792 l 46 797 l 46 796 l 69 846 q 108 912 76 886 q 179 938 139 938 m 179 908 q 122 884 146 908 q 97 826 97 860 q 122 769 97 793 q 179 744 146 744 q 238 768 214 744 q 263 826 263 792 q 239 885 263 861 q 179 908 215 908 z "},":":{"ha":324,"x_min":32,"x_max":293,"o":"m 179 308 q 260 276 228 308 q 293 197 293 244 q 267 126 293 160 l 242 72 q 240 69 242 71 l 239 64 l 236 56 l 236 60 q 196 16 221 32 q 139 0 171 0 q 63 31 94 0 q 32 107 32 63 q 40 151 32 135 q 43 158 40 156 l 44 160 l 43 160 l 44 163 l 46 168 l 46 167 l 69 217 q 108 283 76 257 q 179 308 139 308 m 179 279 q 122 255 146 279 q 97 197 97 231 q 122 140 97 164 q 179 115 146 115 q 238 139 214 115 q 263 197 263 163 q 239 256 263 232 q 179 279 215 279 m 179 938 q 260 906 228 938 q 293 826 293 874 q 267 756 293 789 l 242 701 q 240 699 242 700 l 239 693 l 236 685 l 236 689 q 196 645 221 661 q 139 629 171 629 q 63 660 94 629 q 32 736 32 692 q 40 781 32 764 q 43 788 40 785 l 44 789 l 43 789 l 44 792 l 46 797 l 46 796 l 69 846 q 108 912 76 886 q 179 938 139 938 m 179 908 q 122 884 146 908 q 97 826 97 860 q 122 769 97 793 q 179 744 146 744 q 238 768 214 744 q 263 826 263 792 q 239 885 263 861 q 179 908 215 908 z "},"a":{"ha":644,"x_min":31,"x_max":611,"o":"m 246 0 l 31 0 l 31 465 q 31 512 31 486 q 31 563 31 538 q 33 607 32 588 q 35 635 33 626 q 42 665 38 650 q 54 697 47 679 l 56 700 q 57 704 56 703 l 74 740 q 115 830 86 789 q 185 901 143 871 q 339 949 256 949 q 468 917 408 949 q 565 828 528 885 q 606 725 600 775 q 611 622 611 675 l 611 86 l 604 86 l 567 0 l 350 0 l 350 213 l 290 213 l 290 86 l 285 86 l 246 0 m 417 328 l 417 115 l 581 115 l 581 622 q 576 718 581 671 q 540 811 571 765 q 454 891 507 863 q 339 919 401 919 q 203 876 265 919 q 136 808 163 849 q 101 719 110 767 q 98 692 99 711 q 97 649 97 674 q 97 600 97 625 q 97 556 97 575 l 97 532 l 97 115 l 261 115 l 261 328 l 417 328 m 417 492 l 261 492 l 261 653 q 260 678 260 664 q 268 708 261 693 q 339 756 290 756 q 410 708 388 756 q 417 678 417 693 q 417 653 418 664 l 417 492 m 350 522 l 350 564 q 351 586 351 575 q 347 608 351 597 q 299 639 332 639 l 290 639 l 290 522 l 350 522 z "},"b":{"ha":644,"x_min":36,"x_max":615,"o":"m 542 149 q 442 40 506 81 q 304 0 378 0 l 36 0 l 36 854 l 72 935 l 72 947 l 344 947 q 484 908 419 947 q 586 797 549 868 q 615 675 615 736 q 568 528 615 596 l 563 514 q 615 358 615 438 q 586 238 615 296 q 578 223 583 231 q 568 208 574 215 l 542 149 m 536 531 q 585 656 579 589 q 560 785 592 722 q 472 883 528 847 q 344 918 415 918 l 103 918 l 103 115 l 344 115 q 472 151 415 115 q 560 249 528 186 q 585 378 592 311 q 536 503 579 444 l 526 517 l 536 531 m 344 754 q 399 731 376 754 q 422 676 422 708 q 399 622 422 644 q 344 599 376 599 l 267 599 l 267 754 l 344 754 m 335 628 q 304 639 321 639 l 296 639 l 296 628 l 335 628 m 344 435 q 399 412 376 435 q 422 357 422 389 q 399 302 422 325 q 344 279 376 279 l 267 279 l 267 435 l 344 435 m 335 308 q 304 319 321 319 l 296 319 l 296 308 l 335 308 z "},"c":{"ha":644,"x_min":33,"x_max":613,"o":"m 542 167 q 444 46 507 90 q 300 0 379 0 q 219 13 263 0 q 115 75 161 31 q 47 181 68 119 q 35 240 36 211 q 33 303 33 268 l 33 553 q 35 616 33 586 q 47 675 36 646 l 53 692 l 76 744 l 83 765 q 152 870 104 824 q 258 936 200 917 q 340 949 297 949 q 439 928 392 949 q 525 868 486 907 q 584 779 561 829 q 613 672 607 729 l 613 671 l 606 671 l 568 585 l 356 585 l 356 586 q 299 639 338 636 q 294 640 296 639 l 290 640 l 290 635 q 290 602 290 618 q 292 569 290 586 l 292 463 q 290 431 290 446 q 290 399 290 415 q 290 376 290 389 q 292 353 290 363 q 308 322 294 333 q 342 310 322 310 q 372 324 357 311 q 393 361 386 338 l 393 363 l 613 363 l 613 361 q 596 283 608 321 q 561 213 583 244 l 542 167 m 340 918 q 268 907 306 918 q 172 850 214 890 q 113 756 131 810 q 100 701 101 729 q 99 642 99 674 l 99 393 q 100 333 99 360 q 113 278 101 306 q 173 183 132 224 q 268 126 214 143 q 308 117 290 119 q 340 115 325 115 q 429 132 388 115 q 503 178 471 149 q 555 247 535 207 q 579 332 575 286 l 414 332 q 388 294 407 308 q 343 279 368 281 l 340 279 q 288 300 310 279 q 263 351 265 321 q 260 408 260 379 q 263 463 261 438 l 263 569 q 260 624 261 596 q 263 682 260 653 q 288 733 265 713 q 340 754 310 754 l 343 754 q 387 738 367 753 q 414 700 407 724 l 579 700 q 555 787 575 747 q 503 856 535 826 q 429 901 471 885 q 340 918 388 918 z "},"d":{"ha":644,"x_min":35,"x_max":614,"o":"m 428 442 q 428 350 431 397 q 410 305 426 325 q 369 278 394 285 q 352 276 361 276 q 332 275 343 275 l 311 275 q 301 276 304 276 q 292 276 297 276 l 267 276 l 267 747 q 310 749 279 747 q 374 738 340 750 q 404 717 393 731 q 421 688 415 703 q 428 658 426 672 q 429 633 429 643 q 428 622 428 629 l 428 486 l 428 442 m 367 306 q 365 438 365 376 q 365 489 365 463 q 364 538 364 515 q 363 577 364 560 q 361 603 363 594 q 348 627 358 619 q 326 638 338 635 q 296 638 313 640 l 296 304 q 306 304 300 304 q 317 303 313 304 l 332 303 q 347 303 339 303 q 361 304 354 304 l 361 306 l 367 306 m 546 157 q 447 42 514 85 q 301 0 381 0 l 35 0 l 35 854 l 71 935 l 71 947 l 342 947 q 447 927 397 947 q 535 869 496 907 q 593 781 572 831 q 614 676 614 732 l 614 357 q 601 274 614 314 q 564 200 588 235 l 550 169 q 549 167 550 167 l 546 157 m 100 115 l 342 115 q 435 134 392 115 q 513 186 479 153 q 565 263 546 219 q 583 357 583 307 l 583 676 q 565 770 583 726 q 513 847 546 814 q 435 899 479 881 q 342 918 392 918 l 100 918 l 100 115 z "},"e":{"ha":644,"x_min":35,"x_max":614,"o":"m 607 86 l 569 0 l 35 0 l 35 856 l 71 935 l 71 949 l 614 949 l 614 725 l 607 725 l 569 639 l 294 639 l 294 629 l 614 629 l 614 406 l 607 406 l 569 319 l 294 319 l 294 310 l 614 310 l 614 86 l 607 86 m 100 919 l 100 115 l 585 115 l 585 279 l 264 279 l 264 435 l 585 435 l 585 599 l 264 599 l 264 756 l 585 756 l 585 919 l 100 919 z "},"f":{"ha":644,"x_min":32,"x_max":611,"o":"m 285 86 l 247 0 l 32 0 l 32 854 l 68 935 l 68 947 l 611 947 l 611 724 l 604 724 l 567 639 l 292 639 l 292 628 l 611 628 l 611 404 l 604 404 l 567 319 l 292 319 l 292 86 l 285 86 m 99 918 l 99 115 l 263 115 l 263 435 l 582 435 l 582 599 l 263 599 l 263 754 l 582 754 l 582 918 l 99 918 z "},"g":{"ha":644,"x_min":33,"x_max":614,"o":"m 607 672 l 588 629 l 613 629 l 613 357 q 565 204 613 274 l 544 158 q 447 43 513 86 q 303 0 382 0 q 222 13 260 0 q 115 76 161 32 q 49 181 69 121 q 35 240 38 211 q 33 303 33 269 l 33 551 q 35 615 33 586 q 49 675 38 644 q 53 687 51 682 q 57 699 54 692 l 79 747 l 85 767 q 152 872 106 826 q 261 936 199 917 q 302 945 282 943 q 343 947 322 947 q 442 926 394 947 q 525 867 489 904 q 585 781 561 831 q 614 672 608 731 l 607 672 m 343 918 q 269 908 307 918 q 174 850 215 890 q 114 757 133 810 q 102 701 104 729 q 100 642 100 674 l 100 392 q 102 333 100 361 q 114 278 104 306 q 174 184 133 224 q 269 126 215 144 q 306 118 289 121 q 343 115 324 115 q 437 134 393 115 q 513 186 481 153 q 565 263 546 219 q 583 357 583 307 l 583 599 l 292 599 l 292 435 l 419 435 l 419 357 q 398 303 419 325 q 344 279 376 281 l 342 279 q 288 300 310 279 q 264 351 267 321 q 262 395 261 374 q 263 436 263 417 l 263 464 q 264 491 264 478 q 264 517 264 504 q 264 544 264 531 q 263 569 264 557 l 263 597 q 262 639 263 618 q 264 683 261 660 q 289 733 267 713 q 342 754 311 754 l 344 754 q 415 701 397 751 l 582 701 q 557 787 578 747 q 503 856 536 826 q 430 901 471 885 q 343 918 389 918 m 353 319 l 311 319 q 343 310 325 310 q 353 311 350 310 l 353 319 z "},"h":{"ha":644,"x_min":36,"x_max":615,"o":"m 289 86 l 251 0 l 36 0 l 36 854 l 72 935 l 72 949 l 296 949 l 296 629 l 356 629 l 356 854 l 356 854 l 392 935 l 392 949 l 615 949 l 615 86 l 608 86 l 571 0 l 356 0 l 356 319 l 296 319 l 296 86 l 289 86 m 267 435 l 422 435 l 422 115 l 585 115 l 585 918 l 422 918 l 422 599 l 267 599 l 267 918 l 103 918 l 103 115 l 267 115 l 267 435 z "},"i":{"ha":347,"x_min":46,"x_max":306,"o":"m 300 85 l 261 0 l 46 0 l 46 854 l 82 933 l 82 947 l 306 947 l 306 85 l 300 85 m 276 918 l 113 918 l 113 115 l 276 115 l 276 918 z "},"j":{"ha":644,"x_min":28,"x_max":607,"o":"m 65 363 l 285 363 l 285 361 q 306 324 292 338 q 338 310 321 311 q 344 310 340 310 q 350 311 347 311 l 350 318 l 350 346 q 349 360 349 353 q 349 374 349 367 l 349 854 l 385 936 l 385 949 l 607 949 l 607 393 q 606 328 607 357 q 593 268 604 299 q 561 204 582 233 l 546 171 q 540 160 542 165 q 473 68 517 107 q 376 13 429 29 q 296 0 340 0 q 115 78 193 0 q 56 165 78 115 q 28 268 33 214 l 65 353 l 65 361 l 65 363 m 414 351 q 389 300 411 321 q 338 279 367 279 l 333 279 q 290 294 310 281 q 263 332 271 308 l 97 332 q 122 247 101 286 q 175 178 143 207 q 248 132 207 149 q 336 115 289 115 q 408 126 375 115 q 505 183 464 143 q 565 278 546 224 q 576 333 575 306 q 578 393 578 360 l 578 918 l 415 918 l 415 463 q 417 407 417 435 q 414 351 417 379 z "},"k":{"ha":644,"x_min":40,"x_max":625,"o":"m 301 801 l 374 947 l 625 947 l 624 946 l 410 517 l 624 85 l 614 85 l 576 0 l 336 0 l 296 85 l 294 85 l 257 0 l 40 0 l 42 854 l 78 935 l 78 947 l 301 947 l 301 801 m 392 918 l 271 672 l 271 918 l 107 918 l 107 115 l 271 115 l 271 254 l 272 368 l 392 115 l 576 115 l 376 517 l 376 517 l 576 918 l 392 918 z "},"l":{"ha":596,"x_min":44,"x_max":558,"o":"m 551 86 l 514 0 l 44 0 l 44 854 l 81 936 l 81 947 l 304 947 l 304 310 l 558 310 l 558 86 l 551 86 m 110 918 l 110 115 l 528 115 l 528 279 l 274 279 l 274 918 l 110 918 z "},"m":{"ha":982,"x_min":42,"x_max":942,"o":"m 681 0 l 681 571 q 664 627 681 614 q 629 640 647 640 l 626 640 q 621 640 622 642 l 621 86 l 614 86 l 576 0 l 361 0 l 361 571 q 344 627 361 614 q 310 640 328 640 l 307 640 q 301 640 303 642 l 301 86 l 294 86 l 257 0 l 42 0 l 42 590 q 64 696 42 644 l 65 700 q 67 703 65 703 l 69 707 l 72 715 l 88 750 q 163 874 104 817 q 250 930 201 910 q 351 950 299 950 q 510 896 436 950 q 668 950 582 950 q 768 931 719 950 q 856 875 817 911 q 940 679 938 793 l 940 582 l 940 532 q 942 508 942 521 q 942 483 942 496 q 942 458 942 471 q 940 433 942 446 l 940 383 l 940 86 l 933 86 l 896 0 l 681 0 m 350 756 q 374 752 361 756 q 399 739 388 749 q 419 710 411 729 q 428 661 428 692 l 428 117 l 592 117 l 592 661 q 600 710 592 692 q 620 739 608 729 q 645 752 632 749 q 669 756 658 756 q 694 752 681 756 q 719 739 707 749 q 739 710 731 729 q 747 661 747 692 l 747 117 l 911 117 l 911 288 l 911 679 q 890 774 910 729 q 836 853 871 818 q 756 902 800 885 q 668 919 713 919 q 524 871 589 919 l 510 860 l 494 871 q 351 919 429 919 q 258 900 303 919 q 181 848 214 881 q 128 772 147 815 q 108 679 108 728 q 108 415 106 547 l 108 286 l 108 117 l 272 117 l 272 661 q 281 710 272 692 q 301 739 289 729 q 326 752 313 749 q 350 756 339 756 z "},"n":{"ha":644,"x_min":35,"x_max":614,"o":"m 342 949 q 467 919 408 949 q 561 836 525 889 q 608 724 601 778 q 613 613 614 669 l 613 86 l 607 86 l 569 0 l 354 0 l 354 569 q 349 606 354 592 q 335 627 343 619 q 317 637 326 635 q 301 639 308 639 l 299 639 q 294 639 294 643 l 294 86 l 288 86 l 250 0 l 35 0 l 35 524 q 38 614 35 572 q 60 699 40 656 q 63 707 60 701 q 63 709 63 708 q 64 711 64 710 l 82 753 q 124 836 92 794 q 220 919 163 889 q 342 949 278 949 m 342 754 q 367 751 353 754 q 392 738 381 747 q 413 709 404 728 q 421 660 421 690 l 421 115 l 583 115 l 583 613 q 579 717 585 667 q 539 818 574 768 q 452 892 504 865 q 342 918 400 918 q 233 892 283 918 q 147 818 182 865 q 119 770 129 794 q 106 720 110 746 q 101 668 101 694 q 100 613 100 642 l 100 115 l 264 115 l 264 660 q 273 710 264 692 q 294 739 282 729 q 320 751 307 749 q 342 754 333 754 z "},"o":{"ha":644,"x_min":33,"x_max":613,"o":"m 301 0 q 163 38 226 0 q 64 143 99 76 q 40 207 47 174 q 33 283 33 240 l 33 571 q 39 641 33 611 q 60 703 44 671 l 63 713 l 78 743 l 78 747 q 100 803 86 776 q 144 863 118 836 q 201 910 169 890 q 342 949 267 949 q 482 910 415 949 q 582 803 547 868 q 606 736 599 769 q 613 661 613 703 l 613 372 q 606 296 613 329 q 582 231 599 263 l 568 207 l 550 165 l 539 143 q 440 38 503 76 q 301 0 376 0 m 342 919 q 216 885 274 919 q 126 790 158 850 q 105 731 111 761 q 99 661 99 701 l 99 372 q 106 303 99 333 q 126 244 113 272 q 216 150 158 185 q 342 115 274 115 q 466 150 408 115 q 556 244 524 185 q 583 372 583 299 l 583 661 q 577 731 583 701 q 556 790 571 761 q 466 885 524 850 q 342 919 408 919 m 342 278 q 287 301 310 278 q 264 357 264 325 l 264 663 q 267 699 264 679 q 290 736 271 718 q 342 756 313 756 q 397 733 374 756 q 419 678 419 710 l 419 371 q 416 336 419 356 q 392 297 413 317 q 342 278 369 278 m 353 588 q 338 625 353 610 q 301 640 322 640 q 298 640 299 640 q 296 639 297 639 l 293 639 l 293 357 q 308 323 293 338 q 342 308 322 308 q 353 310 349 308 l 353 588 z "},"p":{"ha":644,"x_min":39,"x_max":618,"o":"m 254 0 l 39 0 l 39 854 l 76 935 l 76 949 l 347 949 q 539 868 456 949 q 598 778 578 828 q 618 676 618 729 q 569 519 618 592 l 556 490 q 553 482 556 488 q 551 480 551 481 q 550 478 551 479 q 452 363 518 406 q 307 319 386 319 l 299 319 l 299 86 l 293 86 l 254 0 m 106 115 l 269 115 l 269 435 l 347 435 q 441 453 397 435 q 518 506 485 472 q 570 583 551 539 q 589 676 589 626 q 518 849 589 775 q 440 900 483 882 q 347 918 396 918 l 106 918 l 106 115 m 425 676 q 402 622 425 644 q 347 599 379 599 l 269 599 l 269 754 l 347 754 q 402 732 379 754 q 425 676 425 710 m 338 629 q 307 639 322 639 l 299 639 l 299 629 l 338 629 z "},"q":{"ha":644,"x_min":35,"x_max":621,"o":"m 303 0 q 183 28 240 0 q 88 108 126 57 q 57 162 68 135 q 41 216 46 189 q 35 271 36 243 q 35 328 35 299 l 35 347 q 36 354 35 353 l 36 361 q 35 374 36 367 q 35 488 35 442 q 35 562 35 533 q 37 604 36 590 q 38 624 38 618 q 58 694 43 658 l 58 697 l 60 699 l 60 700 l 61 701 l 81 744 q 134 851 96 803 q 225 922 172 899 q 343 950 285 950 q 445 930 397 950 q 530 876 493 910 q 590 795 567 842 q 615 694 613 749 q 617 648 617 671 q 617 604 617 625 l 617 575 l 617 569 q 616 566 617 567 q 615 564 615 565 l 615 417 q 611 306 617 356 q 572 207 606 257 l 557 176 l 621 32 l 611 32 l 572 -54 l 336 -54 l 317 0 l 303 0 m 101 418 q 102 364 101 390 q 107 312 103 338 q 121 262 111 286 q 149 214 131 238 q 234 141 183 167 q 343 115 285 115 l 356 115 l 372 117 l 394 61 l 574 61 l 519 189 l 529 201 q 562 251 550 226 q 579 303 574 276 q 585 358 585 329 q 586 418 586 386 l 586 564 l 586 585 q 588 604 588 592 q 588 648 588 626 q 586 693 588 669 q 563 782 583 740 q 510 855 543 824 q 435 903 478 886 q 343 921 392 921 q 238 896 292 921 q 148 819 183 868 q 104 710 113 771 q 102 640 103 700 q 101 468 101 581 q 103 458 103 461 q 103 451 103 454 q 101 438 103 442 l 101 424 l 101 418 m 344 279 q 289 303 313 279 q 265 358 265 326 l 265 663 q 269 699 265 681 q 293 738 272 718 q 343 756 315 756 q 399 733 375 756 q 422 678 422 710 l 422 372 q 419 336 422 356 q 396 299 415 317 q 344 279 372 279 m 356 589 q 340 625 356 610 q 303 640 325 640 l 300 640 q 296 640 296 640 l 296 358 q 310 324 296 339 q 344 310 325 310 q 356 313 347 310 l 356 589 z "},"r":{"ha":644,"x_min":36,"x_max":615,"o":"m 356 0 l 356 214 q 354 265 356 240 q 344 300 353 289 q 322 315 335 311 q 297 321 308 319 l 297 85 l 290 85 l 253 0 l 36 0 l 36 854 l 72 933 l 72 947 l 300 947 q 368 944 335 947 q 434 931 401 942 q 497 900 467 921 q 557 844 528 879 q 600 765 585 808 q 615 676 615 721 q 569 525 615 589 l 564 514 q 608 417 600 465 q 615 308 615 368 l 615 85 l 608 85 l 571 0 l 356 0 m 101 115 l 267 115 l 267 435 l 290 435 q 303 436 299 435 l 324 436 q 404 406 379 436 q 420 361 418 389 q 422 303 422 333 l 422 115 l 585 115 l 585 308 q 578 412 585 367 q 538 501 571 457 l 526 517 l 538 531 q 585 678 586 597 q 533 825 585 760 q 482 876 508 857 q 427 903 456 894 q 367 915 399 913 q 300 918 335 918 l 101 918 l 101 115 m 331 597 q 319 597 325 597 q 310 599 314 597 l 267 599 l 267 754 l 290 754 q 299 754 296 754 q 310 756 303 754 l 331 756 q 365 751 350 756 q 406 722 390 743 q 422 676 422 701 q 406 629 422 650 q 365 601 390 608 q 331 597 350 597 m 335 626 q 317 638 324 635 q 297 640 306 640 l 297 628 l 315 628 q 331 626 322 626 l 335 626 z "},"s":{"ha":644,"x_min":31,"x_max":614,"o":"m 489 79 q 390 15 440 31 q 301 0 339 0 q 201 19 250 0 q 115 74 151 39 q 59 156 81 107 q 31 269 38 206 l 68 353 q 67 363 67 356 l 153 363 q 53 485 85 408 q 32 589 32 535 q 56 697 32 642 q 58 704 58 703 q 60 707 60 706 l 61 710 l 78 746 q 147 868 93 811 q 250 933 199 918 q 339 949 301 949 q 440 929 390 949 q 528 874 489 910 q 583 790 561 842 q 614 672 606 739 l 607 672 l 569 586 l 486 586 q 547 533 519 564 q 592 461 574 501 q 613 357 613 407 q 565 208 613 272 l 544 160 q 519 117 533 136 q 489 79 506 97 m 318 317 q 323 314 321 315 q 328 311 325 313 q 318 317 324 314 m 100 333 q 174 182 108 243 q 251 133 207 150 q 342 115 294 115 q 422 129 376 115 q 511 188 467 143 q 578 310 564 240 q 564 450 592 381 q 475 559 535 519 q 340 599 415 599 q 268 647 290 599 q 265 692 260 669 q 285 732 269 715 q 340 754 310 754 q 386 740 365 754 q 415 701 407 725 l 581 701 q 507 851 572 793 q 428 901 472 883 q 339 919 383 919 q 260 906 306 919 q 169 849 214 893 q 103 724 117 794 q 117 583 89 654 q 206 474 146 514 q 340 435 265 435 q 383 422 364 435 q 413 386 403 410 q 416 342 421 364 q 396 303 411 319 q 342 279 372 279 q 294 294 315 279 q 267 333 274 310 l 100 333 m 313 638 q 318 633 315 635 q 325 631 321 632 q 313 638 317 636 z "},"t":{"ha":604,"x_min":43,"x_max":569,"o":"m 79 938 l 79 949 l 569 949 l 569 725 l 563 725 l 525 640 l 436 640 l 436 86 l 431 86 l 392 0 l 176 0 l 176 640 l 43 640 l 43 856 l 79 938 m 108 756 l 243 756 l 243 115 l 407 115 l 407 756 l 539 756 l 539 919 l 108 919 l 108 756 z "},"u":{"ha":644,"x_min":36,"x_max":617,"o":"m 304 0 q 166 38 229 0 q 67 143 103 76 q 44 207 51 174 q 36 282 36 240 l 36 854 l 72 935 l 72 949 l 297 949 l 297 374 q 302 340 297 353 q 314 319 307 326 q 329 309 321 311 q 344 307 338 307 q 356 308 351 307 l 356 854 l 393 935 l 393 949 l 617 949 l 617 372 q 585 229 617 285 l 571 208 l 553 167 l 550 161 l 550 160 l 540 143 q 436 40 501 79 q 304 0 371 0 m 422 374 q 413 322 422 342 q 392 293 404 303 q 366 281 379 283 q 344 278 353 278 q 320 281 333 278 q 295 294 307 285 q 275 323 283 304 q 267 374 267 342 l 267 918 l 103 918 l 103 372 q 131 244 103 296 q 219 149 163 183 q 344 115 276 115 q 469 149 413 115 q 558 244 526 183 q 586 372 586 296 l 586 918 l 422 918 l 422 374 z "},"v":{"ha":629,"x_min":25,"x_max":604,"o":"m 604 947 l 603 947 l 469 86 l 464 86 l 426 0 l 160 0 l 160 1 l 25 854 l 25 854 l 63 938 l 61 947 l 288 947 l 288 947 l 321 728 l 342 854 l 342 854 l 375 929 l 378 947 l 604 947 m 261 918 l 96 918 l 222 115 l 443 115 l 569 918 l 404 918 l 332 447 l 308 617 l 261 918 z "},"w":{"ha":974,"x_min":36,"x_max":936,"o":"m 713 947 l 936 947 l 936 356 q 924 275 935 314 q 889 204 913 236 l 889 203 l 885 194 l 876 175 l 876 174 l 872 161 l 872 167 l 872 165 l 868 156 q 844 112 858 132 q 810 72 829 92 q 723 19 771 38 q 624 0 675 0 q 540 13 579 0 q 468 50 500 25 l 465 53 q 391 13 432 26 q 307 0 350 0 q 208 18 257 0 q 119 72 160 36 q 62 159 83 107 q 38 265 40 211 q 36 364 36 310 q 36 463 36 418 q 36 560 36 511 q 38 657 36 608 l 38 853 l 38 854 l 75 935 l 75 947 l 297 947 l 297 374 q 313 321 297 333 q 346 308 329 308 q 357 310 353 308 l 357 853 l 357 854 l 393 935 l 393 947 l 617 947 l 617 374 q 622 340 617 353 q 634 319 626 326 q 650 310 642 313 q 665 308 658 308 q 676 310 672 308 l 676 853 l 676 854 l 713 935 l 713 947 m 743 374 q 734 323 743 342 q 713 294 725 304 q 687 282 700 285 q 665 279 674 279 q 641 283 654 279 q 616 296 628 286 q 596 324 604 306 q 588 374 588 343 l 588 918 l 424 918 l 424 374 q 415 324 424 343 q 395 296 407 306 q 370 283 383 286 q 346 279 357 279 q 322 283 335 279 q 297 296 308 286 q 276 324 285 306 q 268 374 268 343 l 268 918 l 104 918 l 104 746 q 104 356 101 553 q 124 261 104 306 q 176 185 143 217 q 253 134 210 153 q 347 115 297 115 q 490 164 426 115 l 506 175 l 519 164 q 664 115 583 115 q 753 132 710 115 q 832 181 797 149 q 907 356 904 251 l 907 618 l 907 746 l 907 918 l 743 918 l 743 374 z "},"x":{"ha":644,"x_min":13,"x_max":632,"o":"m 632 946 l 460 517 l 494 429 q 513 383 504 406 q 533 335 522 360 q 585 206 560 269 q 632 88 611 142 l 632 86 l 622 86 l 585 0 l 354 0 l 303 126 l 288 86 l 282 86 l 244 0 l 13 0 l 63 129 l 182 428 q 165 470 174 449 q 147 515 157 492 q 78 686 114 599 q 13 853 43 774 l 13 854 l 50 938 l 46 947 l 288 947 l 338 819 q 345 838 342 829 q 354 854 349 847 l 357 863 l 392 947 l 632 947 l 632 946 m 90 115 l 267 115 l 339 296 l 411 115 l 588 115 l 428 517 l 588 918 l 411 918 l 339 738 l 267 918 l 90 918 l 251 517 l 90 115 z "},"y":{"ha":644,"x_min":35,"x_max":614,"o":"m 194 289 q 77 390 119 324 q 35 539 35 457 l 35 854 l 71 936 l 71 949 l 294 949 l 294 642 q 299 608 294 621 q 312 587 304 594 q 328 577 319 579 q 343 575 336 575 q 354 576 350 575 l 354 854 l 390 936 l 390 949 l 614 949 l 614 629 q 565 471 614 544 l 560 456 l 550 433 l 550 435 l 546 426 q 454 315 514 358 l 454 86 l 449 86 l 410 0 l 194 0 l 194 289 m 421 642 q 413 591 421 610 q 392 563 404 572 q 367 549 381 553 q 343 546 354 546 q 319 549 332 546 q 294 563 306 553 q 274 591 282 572 q 265 642 265 610 l 265 918 l 101 918 l 101 629 q 140 492 101 553 q 246 401 179 431 l 261 396 l 261 117 l 425 117 l 425 396 l 439 401 q 546 492 507 431 q 585 629 585 553 l 585 918 l 421 918 l 421 642 z "},"z":{"ha":679,"x_min":35,"x_max":639,"o":"m 71 293 l 71 294 l 303 626 l 35 626 l 35 842 l 71 924 l 71 936 l 639 936 l 639 714 l 626 696 l 594 626 l 364 297 l 639 297 l 639 74 l 632 74 l 594 -12 l 35 -12 l 35 203 l 71 285 l 71 293 m 101 742 l 421 742 l 419 740 l 101 283 l 101 103 l 610 103 l 610 267 l 289 267 l 610 725 l 610 906 l 101 906 l 101 742 z "},"C":{"ha":644,"x_min":33,"x_max":613,"o":"m 542 167 q 444 46 507 90 q 300 0 379 0 q 219 13 263 0 q 115 75 161 31 q 47 181 68 119 q 35 240 36 211 q 33 303 33 268 l 33 553 q 35 616 33 586 q 47 675 36 646 l 53 692 l 76 744 l 83 765 q 152 870 104 824 q 258 936 200 917 q 340 949 297 949 q 439 928 392 949 q 525 868 486 907 q 584 779 561 829 q 613 672 607 729 l 613 671 l 606 671 l 568 585 l 356 585 l 356 586 q 299 639 338 636 q 294 640 296 639 l 290 640 l 290 635 q 290 602 290 618 q 292 569 290 586 l 292 463 q 290 431 290 446 q 290 399 290 415 q 290 376 290 389 q 292 353 290 363 q 308 322 294 333 q 342 310 322 310 q 372 324 357 311 q 393 361 386 338 l 393 363 l 613 363 l 613 361 q 596 283 608 321 q 561 213 583 244 l 542 167 m 340 918 q 268 907 306 918 q 172 850 214 890 q 113 756 131 810 q 100 701 101 729 q 99 642 99 674 l 99 393 q 100 333 99 360 q 113 278 101 306 q 173 183 132 224 q 268 126 214 143 q 308 117 290 119 q 340 115 325 115 q 429 132 388 115 q 503 178 471 149 q 555 247 535 207 q 579 332 575 286 l 414 332 q 388 294 407 308 q 343 279 368 281 l 340 279 q 288 300 310 279 q 263 351 265 321 q 260 408 260 379 q 263 463 261 438 l 263 569 q 260 624 261 596 q 263 682 260 653 q 288 733 265 713 q 340 754 310 754 l 343 754 q 387 738 367 753 q 414 700 407 724 l 579 700 q 555 787 575 747 q 503 856 535 826 q 429 901 471 885 q 340 918 388 918 z "},"D":{"ha":644,"x_min":35,"x_max":614,"o":"m 428 442 q 428 350 431 397 q 410 305 426 325 q 369 278 394 285 q 352 276 361 276 q 332 275 343 275 l 311 275 q 301 276 304 276 q 292 276 297 276 l 267 276 l 267 747 q 310 749 279 747 q 374 738 340 750 q 404 717 393 731 q 421 688 415 703 q 428 658 426 672 q 429 633 429 643 q 428 622 428 629 l 428 486 l 428 442 m 367 306 q 365 438 365 376 q 365 489 365 463 q 364 538 364 515 q 363 577 364 560 q 361 603 363 594 q 348 627 358 619 q 326 638 338 635 q 296 638 313 640 l 296 304 q 306 304 300 304 q 317 303 313 304 l 332 303 q 347 303 339 303 q 361 304 354 304 l 361 306 l 367 306 m 546 157 q 447 42 514 85 q 301 0 381 0 l 35 0 l 35 854 l 71 935 l 71 947 l 342 947 q 447 927 397 947 q 535 869 496 907 q 593 781 572 831 q 614 676 614 732 l 614 357 q 601 274 614 314 q 564 200 588 235 l 550 169 q 549 167 550 167 l 546 157 m 100 115 l 342 115 q 435 134 392 115 q 513 186 479 153 q 565 263 546 219 q 583 357 583 307 l 583 676 q 565 770 583 726 q 513 847 546 814 q 435 899 479 881 q 342 918 392 918 l 100 918 l 100 115 z "},"B":{"ha":644,"x_min":36,"x_max":615,"o":"m 542 149 q 442 40 506 81 q 304 0 378 0 l 36 0 l 36 854 l 72 935 l 72 947 l 344 947 q 484 908 419 947 q 586 797 549 868 q 615 675 615 736 q 568 528 615 596 l 563 514 q 615 358 615 438 q 586 238 615 296 q 578 223 583 231 q 568 208 574 215 l 542 149 m 536 531 q 585 656 579 589 q 560 785 592 722 q 472 883 528 847 q 344 918 415 918 l 103 918 l 103 115 l 344 115 q 472 151 415 115 q 560 249 528 186 q 585 378 592 311 q 536 503 579 444 l 526 517 l 536 531 m 344 754 q 399 731 376 754 q 422 676 422 708 q 399 622 422 644 q 344 599 376 599 l 267 599 l 267 754 l 344 754 m 335 628 q 304 639 321 639 l 296 639 l 296 628 l 335 628 m 344 435 q 399 412 376 435 q 422 357 422 389 q 399 302 422 325 q 344 279 376 279 l 267 279 l 267 435 l 344 435 m 335 308 q 304 319 321 319 l 296 319 l 296 308 l 335 308 z "},"A":{"ha":644,"x_min":31,"x_max":611,"o":"m 246 0 l 31 0 l 31 465 q 31 512 31 486 q 31 563 31 538 q 33 607 32 588 q 35 635 33 626 q 42 665 38 650 q 54 697 47 679 l 56 700 q 57 704 56 703 l 74 740 q 115 830 86 789 q 185 901 143 871 q 339 949 256 949 q 468 917 408 949 q 565 828 528 885 q 606 725 600 775 q 611 622 611 675 l 611 86 l 604 86 l 567 0 l 350 0 l 350 213 l 290 213 l 290 86 l 285 86 l 246 0 m 417 328 l 417 115 l 581 115 l 581 622 q 576 718 581 671 q 540 811 571 765 q 454 891 507 863 q 339 919 401 919 q 203 876 265 919 q 136 808 163 849 q 101 719 110 767 q 98 692 99 711 q 97 649 97 674 q 97 600 97 625 q 97 556 97 575 l 97 532 l 97 115 l 261 115 l 261 328 l 417 328 m 417 492 l 261 492 l 261 653 q 260 678 260 664 q 268 708 261 693 q 339 756 290 756 q 410 708 388 756 q 417 678 417 693 q 417 653 418 664 l 417 492 m 350 522 l 350 564 q 351 586 351 575 q 347 608 351 597 q 299 639 332 639 l 290 639 l 290 522 l 350 522 z "}}}
